<?xml version="1.0" encoding="utf-8"?>
<!-- Generator: Adobe Illustrator 27.5.0, SVG Export Plug-In . SVG Version: 6.00 Build 0)  -->
<svg version="1.1" xmlns="http://www.w3.org/2000/svg" xmlns:xlink="http://www.w3.org/1999/xlink" x="0px" y="0px"
	 viewBox="0 0 500 500" style="enable-background:new 0 0 500 500;" xml:space="preserve">
<g id="BACKGROUND">
</g>
<g id="OBJECTS">
	<g>
		<path style="fill:#010101;" d="M196.499,354.553c0.01-0.449,0.075-0.895,0.14-1.319c0.049-0.32,0.102-0.662,0.134-1.027
			c0.417-4.66,1.56-7.63,2.952-9.503c-0.667-2.093-1.94-3.719-4.272-3.927c-5.463-0.489-6.541,7.772-6.797,10.635
			c-0.256,2.862-1.624,4.403,5.395,5.031C195.019,354.529,195.816,354.561,196.499,354.553z"/>
		<path style="fill:#010101;" d="M204.035,357.405c1.578,0.141,2.731,0.148,3.592,0.045c-0.518-4.091,0.371-8.467,2.042-11.396
			c0.034-0.06,0.072-0.112,0.107-0.17c-0.647-2.197-1.927-3.929-4.339-4.145c-5.463-0.489-6.541,7.772-6.797,10.635
			C198.383,355.236,197.016,356.777,204.035,357.405z"/>
		<path style="fill:#010101;" d="M211.133,361.93c0,0,4.27-1.015,5.651-3.213c0.016-0.111,0.032-0.222,0.049-0.331
			c0.06-0.388,0.124-0.802,0.163-1.245c0.152-1.693,0.384-3.201,0.68-4.547c0.134-3.838-0.339-8.146-3.062-8.146
			C210.763,344.448,207.281,355.411,211.133,361.93z"/>
		<path style="fill:#010101;" d="M233.556,358.624c0.451-5.034,0.285-13.594-5.923-14.149c-6.718-0.601-8.031,9.406-8.341,12.873
			c-0.31,3.467-1.989,5.332,6.643,6.104C234.142,364.186,233.246,362.091,233.556,358.624z"/>
		<path style="fill:#010101;" d="M243.359,342.114c-6.818,0-7.238,12.607-7.238,16.959c0,4.352-1.522,6.861,7.238,6.861
			c8.329,0,7.238-2.509,7.238-6.861C250.597,352.754,249.659,342.114,243.359,342.114z"/>
		<path style="fill:#010101;" d="M308.165,338.776c-2.332,0.209-3.605,1.835-4.272,3.927c1.393,1.873,2.536,4.844,2.953,9.503
			c0.033,0.365,0.085,0.707,0.134,1.027c0.065,0.425,0.13,0.87,0.14,1.319c0.682,0.008,1.479-0.025,2.448-0.111
			c7.018-0.628,5.651-2.169,5.395-5.031C314.706,346.548,313.628,338.287,308.165,338.776z"/>
		<path style="fill:#010101;" d="M295.992,357.45c0.861,0.103,2.014,0.096,3.592-0.045c7.018-0.628,5.651-2.169,5.395-5.031
			c-0.256-2.862-1.334-11.124-6.797-10.635c-2.412,0.216-3.693,1.948-4.339,4.145c0.035,0.059,0.073,0.11,0.107,0.17
			C295.621,348.983,296.51,353.359,295.992,357.45z"/>
		<path style="fill:#010101;" d="M292.485,361.93c3.852-6.519,0.37-17.481-3.482-17.481c-4.222,0-3.036,10.361-2.563,13.259
			C286.914,360.606,292.485,361.93,292.485,361.93z"/>
		<path style="fill:#010101;" d="M267.548,359.073c0-6.319-0.937-16.959-7.238-16.959c-6.818,0-7.238,12.607-7.238,16.959
			c0,4.352-1.522,6.861,7.238,6.861C268.639,365.935,267.548,363.425,267.548,359.073z"/>
		<path style="fill:#010101;" d="M284.326,357.347c-0.31-3.467-1.622-13.474-8.341-12.873c-6.208,0.556-6.373,9.115-5.923,14.149
			c0.31,3.467-0.586,5.562,7.621,4.828C286.315,362.679,284.636,360.814,284.326,357.347z"/>
		<path style="fill:#010101;" d="M196.795,359.497c-5.778-0.497-5.152,1.09-5.379,3.728c-0.329,3.831-0.234,10.338,4.137,10.714
			c2.564,0.22,4.012-1.921,4.841-4.345c0-0.9,0.03-1.851,0.12-2.895c0.025-0.296,0.04-0.58,0.054-0.85
			c0.06-1.185,0.127-2.404,1.092-3.343C201.851,360.862,201.519,359.903,196.795,359.497z"/>
		<path style="fill:#010101;" d="M208.57,362.844c-6.675-0.574-5.943,1.152-6.189,4.015c-0.357,4.157-0.208,11.222,4.841,11.656
			c2.564,0.22,4.147-1.488,5.14-3.653c-0.361-3.424,0.113-7.091,1.802-9.973C213.864,363.85,212.602,363.19,208.57,362.844z"/>
		<path style="fill:#010101;" d="M215.906,365.872c-3.852,6.518-0.37,17.482,3.482,17.482c4.222,0,3.036-10.361,2.563-13.259
			C221.477,367.197,215.906,365.872,215.906,365.872z"/>
		<path style="fill:#010101;" d="M229.252,365.79c-6.386,0.704-5.317,2.725-4.913,6.392c0.587,5.323,5.743,13.827,7.124,13.675
			c1.558-0.172,4.379-11.232,3.975-14.898C235.034,367.292,235.969,365.05,229.252,365.79z"/>
		<path style="fill:#010101;" d="M243.309,367.934c-6.824,0-5.93,2.259-5.93,6.176c0,5.688,4.454,15.266,5.93,15.266
			c1.665,0,5.93-11.348,5.93-15.266C249.239,370.193,250.486,367.934,243.309,367.934z"/>
		<path style="fill:#010101;" d="M257.334,367.934c-7.177,0-5.93,2.259-5.93,6.176c0,3.918,4.265,15.266,5.93,15.266
			c1.475,0,5.93-9.578,5.93-15.266C263.264,370.193,264.157,367.934,257.334,367.934z"/>
		<path style="fill:#010101;" d="M303.848,359.497c-4.724,0.406-5.056,1.364-4.865,3.009c0.966,0.939,1.032,2.158,1.092,3.343
			c0.014,0.269,0.028,0.553,0.054,0.85c0.09,1.045,0.12,1.995,0.12,2.896c0.829,2.425,2.276,4.566,4.841,4.345
			c4.371-0.376,4.467-6.882,4.137-10.714C309,360.587,309.626,359,303.848,359.497z"/>
		<path style="fill:#010101;" d="M292.073,362.844c-4.031,0.347-5.294,1.006-5.596,2.045c1.69,2.882,2.163,6.549,1.802,9.973
			c0.993,2.165,2.577,3.873,5.14,3.653c5.049-0.434,5.199-7.499,4.841-11.656C298.015,363.996,298.748,362.27,292.073,362.844z"/>
		<path style="fill:#010101;" d="M278.693,370.095c-0.473,2.898-1.659,13.259,2.563,13.259c3.852,0,7.333-10.963,3.482-17.482
			C284.738,365.872,279.166,367.197,278.693,370.095z"/>
		<path style="fill:#010101;" d="M380.438,198.211c1.948-7.487,2.99-15.657,2.99-24.576c0-33.26-14.268-58.453-37.436-75.506
			C324.39,70.3,289.765,52.263,250.73,52.263s-73.66,18.038-95.261,45.866c-23.168,17.052-37.436,42.245-37.436,75.506
			c0,8.919,1.042,17.089,2.99,24.576l-0.014,0.002c0,0-0.037-0.025,0.277,1.015c0.676,2.472,1.445,4.875,2.322,7.195
			c0.941,2.848,2.225,6.691,3.969,11.858c0.897-6.63,2.294-11.83,2.371-15.608c0.111-5.444,8-25.667,8-25.667
			c-7.778,31.111-7.007,45.992-6.889,54.95c0,0.002,0,0.004,0,0.006c1.673,12.713-3.076,17.362-3.778,18.239
			c-0.889,1.111-4.222,9.111-4.222,10.444c0,1.333,4.667,10.222,7.111,12.444c2.445,2.222,3.926,2.197,9.704,4.593
			c5.778,2.396,5.942,7.423,5.942,7.423s-0.09,4.206-0.535,5.984s0.222,2.667,2.444,6.222c0.405,0.649,1.019,1.224,1.749,1.734
			c1.488,4.133,3.648,12.281,5.362,27.488c3.407,30.239-7.852,18.257,2.815,46.688c11.641,31.028,18.963,40.312,26.074,41.752
			c7.111,1.44,34.667,27.56,37.778,29.782c3.083,2.202,28.734,2.968,29.205,2.982v0.001c0,0,0.01,0,0.011,0c0.001,0,0.011,0,0.011,0
			v-0.001c0.471-0.014,26.122-0.78,29.205-2.982c3.111-2.222,30.667-28.342,37.778-29.782c7.111-1.44,14.433-10.724,26.074-41.752
			c10.667-28.431-0.593-16.449,2.815-46.688c1.711-15.18,3.866-23.325,5.354-27.465c0.745-0.516,1.368-1.099,1.78-1.757
			c2.222-3.556,2.889-4.444,2.444-6.222c-0.444-1.778-0.535-5.984-0.535-5.984s0.164-5.027,5.942-7.423
			c5.778-2.396,7.259-2.37,9.704-4.593c2.444-2.222,7.111-11.111,7.111-12.444c0-1.333-3.333-9.333-4.222-10.444
			c-0.413-0.516-2.23-2.341-3.314-6.346h0c0,0,0,0,0,0c-0.366-1.35-0.647-2.949-0.763-4.829c-1.737-11.05-5.696-35.905-7.488-39.353
			c-2.169-4.175-19.778-27.259-19.778-27.259s20.119,21.508,21.615,25.273c0.799,2.012,4.725,13.779,8.208,24.301
			c0.205-0.661,0.423-1.336,0.656-2.026c2.041-6.037,3.496-10.391,4.537-13.542c0.876-2.319,1.645-4.72,2.321-7.192
			c0.315-1.039,0.277-1.015,0.277-1.015L380.438,198.211z M294.243,166.338c3.778-0.444,10.333,1.333,21.667,5.333
			s26.667,10.631,26.667,10.631s-39.111-13.445-46.37-13.742c-7.259-0.296-21.778,4.741-33.333,17.467
			C273.391,169.716,290.465,166.783,294.243,166.338z M250.73,254.866c2.294,0.084,2.765,6.187,6.262,9.865
			c3.497,3.679,8.806,22.991,9.555,27.004c0.749,4.013,4.684,7.274,4.497,11.537c-0.187,4.264-12.74,8.778-14.426,8.778
			c-1.686,0-5.887-32.856-5.887-32.856s-4.201,32.856-5.887,32.856s-14.239-4.515-14.426-8.778
			c-0.187-4.264,3.747-7.524,4.497-11.537c0.75-4.013,6.058-23.326,9.555-27.004C247.966,261.053,248.436,254.95,250.73,254.866z
			 M296.26,306.021c-0.716-3.097-2.044-6.074-3.868-8.728c1.994,2.529,3.54,5.439,4.484,8.565c0.475,1.562,0.771,3.184,0.898,4.824
			l0.371,4.809c0.121,3.195,0.352,6.392,0.755,9.573c0.186,1.593,0.423,3.181,0.695,4.763c0.26,1.586,0.556,3.168,0.945,4.732
			c-1.084-3.04-1.855-6.19-2.471-9.365c-0.606-3.178-1.025-6.396-1.268-9.629c-0.112-1.611,0.044-3.263,0.019-4.842
			C296.802,309.15,296.622,307.568,296.26,306.021z M283.576,271.227C279.132,266.116,267.317,250,267.317,250
			s14.222,16.783,20.741,21.82c6.519,5.037,35.852,6.963,49.333-0.741c0,0-8.815,7.482-27.815,6.815
			C290.576,277.227,288.021,276.338,283.576,271.227z M280.944,326.866c0.195,1.68,0.525,3.345,0.883,5.004
			c0.354,1.662,0.782,3.311,1.31,4.933c-1.346-3.138-2.338-6.434-2.997-9.807c-0.67-3.37-0.938-6.85-0.586-10.331
			c0.132-1.749,0.729-3.436,1.379-5.055c0.672-1.551,1.188-3.128,1.475-4.787c0.587-3.292,0.375-6.799-0.905-9.966
			c1.489,3.077,1.957,6.626,1.578,10.062c-0.175,1.721-0.623,3.435-1.19,5.058c-0.211,0.805-0.501,1.579-0.6,2.409
			c-0.079,0.407-0.137,0.816-0.234,1.218c-0.081,0.405-0.108,0.822-0.176,1.231C280.374,320.121,280.504,323.519,280.944,326.866z
			 M251.718,327.301c-0.033,2.84-0.148,5.679-0.584,8.518c-0.436-2.839-0.551-5.679-0.585-8.518c-0.017-1.42,0.019-2.84,0.099-4.259
			c0.089-1.42,0.219-2.839,0.485-4.259c0.266,1.42,0.396,2.839,0.485,4.259C251.699,324.462,251.735,325.881,251.718,327.301z
			 M221.495,316.834c-0.068-0.409-0.095-0.826-0.176-1.231c-0.097-0.401-0.155-0.811-0.234-1.218c-0.099-0.83-0.39-1.603-0.6-2.409
			c-0.567-1.623-1.015-3.337-1.19-5.058c-0.38-3.436,0.089-6.985,1.578-10.062c-1.28,3.167-1.492,6.674-0.905,9.966
			c0.287,1.66,0.802,3.237,1.475,4.787c0.65,1.619,1.248,3.306,1.379,5.055c0.352,3.481,0.084,6.961-0.586,10.331
			c-0.659,3.373-1.651,6.669-2.997,9.807c0.528-1.621,0.957-3.271,1.31-4.933c0.358-1.659,0.688-3.324,0.883-5.004
			C221.873,323.519,222.003,320.121,221.495,316.834z M217.885,271.227c-4.445,5.111-7,6-26,6.667
			c-19,0.667-27.815-6.815-27.815-6.815c13.481,7.704,42.815,5.778,49.333,0.741c6.518-5.037,20.741-21.82,20.741-21.82
			S222.329,266.116,217.885,271.227z M205.576,315.567c-0.243,3.233-0.662,6.45-1.268,9.629c-0.617,3.175-1.387,6.325-2.471,9.365
			c0.389-1.564,0.685-3.146,0.945-4.732c0.273-1.583,0.509-3.17,0.695-4.763c0.403-3.181,0.634-6.378,0.755-9.573l0.371-4.809
			c0.127-1.64,0.423-3.262,0.898-4.824c0.944-3.126,2.489-6.036,4.484-8.565c-1.824,2.654-3.152,5.631-3.868,8.728
			c-0.362,1.547-0.542,3.129-0.56,4.704C205.532,312.304,205.688,313.956,205.576,315.567z M185.552,171.671
			c11.333-4,17.889-5.778,21.667-5.333c3.778,0.445,20.852,3.378,31.37,19.689c-11.556-12.726-26.074-17.763-33.333-17.467
			c-7.259,0.296-46.37,13.742-46.37,13.742S174.218,175.671,185.552,171.671z M143.43,187.311c0,0,17.481-42.37,17.481-43.449
			c0-1.079-0.593-43.449-0.593-43.449s4.541,43.555,3.752,43.852C163.281,144.56,143.43,187.311,143.43,187.311z M188.288,197.791
			c34.861-1.028,47.745,5.293,47.745,25.526c0,29.09-20.81,45.528-46.481,45.528c-25.671,0-38.255-16.402-38.255-36.635
			S162.628,198.547,188.288,197.791z M216.438,407.573c-0.441-0.63-0.93-1.222-1.482-1.76c-1.084-1.089-2.284-2.066-3.52-3.001
			c-2.479-1.859-5.047-3.637-7.47-5.636c-2.43-1.98-4.733-4.188-6.579-6.774c-0.9-1.307-1.673-2.703-2.275-4.166
			c-0.583-1.47-0.984-3.01-1.138-4.566c0.814,3.02,2.248,5.785,4.156,8.18c1.888,2.415,4.154,4.511,6.515,6.504
			c2.373,1.983,4.884,3.827,7.27,5.861c1.185,1.023,2.38,2.057,3.391,3.278c1.003,1.203,1.903,2.604,2.09,4.177
			C217.198,408.913,216.847,408.221,216.438,407.573z M216.358,387.738c0.999,2.132,2.602,3.767,4.337,5.227
			c1.744,1.458,3.658,2.733,5.562,4.052c1.903,1.319,3.85,2.63,5.619,4.21c0.886,0.783,1.725,1.643,2.423,2.616
			c0.676,0.98,1.251,2.07,1.423,3.236c-0.904-2.181-2.701-3.67-4.509-5.039c-1.842-1.353-3.801-2.578-5.733-3.882
			c-1.93-1.303-3.853-2.681-5.547-4.359C218.26,392.143,216.765,390.08,216.358,387.738z M265.16,417.25
			c-5.008-1.104-10.097-1.809-15.208-1.963c-5.111-0.183-10.231,0.214-15.29,1.04c-1.265,0.211-2.531,0.423-3.781,0.719
			l-1.882,0.416l-1.867,0.485c-2.507,0.596-4.955,1.407-7.428,2.17c2.356-1.068,4.769-2.019,7.228-2.85
			c1.23-0.417,2.474-0.788,3.732-1.113c1.249-0.364,2.518-0.644,3.79-0.924c5.088-1.11,10.327-1.56,15.544-1.41
			c5.218,0.167,10.409,0.957,15.434,2.303c5.033,1.324,9.893,3.211,14.543,5.474C275.097,419.868,270.165,418.373,265.16,417.25z
			 M275.982,398.158c-1.932,1.304-3.891,2.529-5.733,3.882c-1.808,1.368-3.605,2.858-4.509,5.039
			c0.171-1.166,0.747-2.255,1.423-3.236c0.699-0.973,1.537-1.833,2.423-2.616c1.769-1.58,3.716-2.891,5.619-4.21
			c1.904-1.319,3.818-2.594,5.562-4.052c1.734-1.46,3.338-3.095,4.336-5.227c-0.407,2.342-1.902,4.405-3.574,6.061
			C279.835,395.478,277.911,396.855,275.982,398.158z M306.349,386.237c-0.602,1.463-1.375,2.859-2.275,4.166
			c-1.846,2.586-4.15,4.795-6.579,6.774c-2.423,1.999-4.991,3.776-7.47,5.636c-1.235,0.934-2.435,1.912-3.52,3.001
			c-0.552,0.537-1.041,1.129-1.482,1.76c-0.41,0.647-0.76,1.339-0.959,2.098c0.188-1.573,1.088-2.974,2.091-4.177
			c1.012-1.221,2.206-2.255,3.391-3.278c2.386-2.034,4.896-3.878,7.27-5.861c2.361-1.993,4.627-4.09,6.515-6.504
			c1.908-2.395,3.342-5.159,4.156-8.18C307.333,383.227,306.932,384.767,306.349,386.237z M342.318,303.745
			c-0.237,0-5.88-0.668-9.91-1.149c-4.07,13.849-1.209,12.19-0.473,19.27c0.889,8.556,0,19.703-6.667,33.907
			c0,0,10.247-15.624,10.457-39.846c0,0,1,20.411-3.556,32.634c-3.358,9.01-9.55,11.999-12.575,12.949
			c-2.18,1.839-5.049,3.963-8.686,6.128c-0.432,6.005-3.133,7.885-5.618,8.099c-1.434,0.123-3.497-0.355-5.154-2.737
			c-0.041,0.017-0.085,0.034-0.126,0.051c-0.844,5.412-3.717,7.187-6.37,7.415c-1.632,0.14-3.96-0.377-5.844-2.857
			c-0.38,1.539-0.921,2.96-1.595,4.141c-1.327,2.325-3.083,3.605-4.946,3.605c-1.276,0-2.396-0.524-3.24-1.518
			c-0.87-1.023-1.362-2.531-1.617-4.198c-0.197,0.033-0.404,0.062-0.603,0.095c-1.954,4.224-4.715,8.228-6.823,7.995
			c-1.752-0.193-3.151-3.186-4.122-6.643c-0.313,0.027-0.616,0.059-0.931,0.084c-1.545,5.009-4.179,10.207-6.587,10.207
			c-2.417,0-4.758-4.993-6.262-9.699c-0.119,0-0.233,0.004-0.353,0.004c-0.388,0-0.761-0.01-1.145-0.013
			c-1.504,4.708-3.846,9.708-6.265,9.708c-2.42,0-5.07-5.253-6.612-10.286c-0.293-0.025-0.597-0.044-0.888-0.07
			c-0.972,3.485-2.378,6.515-4.141,6.709c-2.131,0.235-4.931-3.862-6.889-8.138c-0.171-0.029-0.349-0.055-0.519-0.085
			c-0.249,1.719-0.742,3.281-1.635,4.331c-0.844,0.993-1.964,1.518-3.24,1.518c-1.863,0-3.619-1.28-4.946-3.605
			c-0.674-1.181-1.215-2.601-1.595-4.138c-1.884,2.481-4.213,2.995-5.845,2.855c-2.686-0.231-5.595-2.055-6.397-7.629
			c-1.673,2.513-3.789,3.026-5.253,2.9c-2.55-0.219-5.322-2.203-5.641-8.589c-3.831-2.348-6.757-4.626-8.889-6.519l0.006,0.007
			c-18.786-10.761-15.769-42.89-15.769-42.89c0.382,19.741,8.051,32.738,10.198,35.999c-5.823-13.239-6.599-23.736-5.753-31.879
			c0.758-7.297,3.775-5.309-0.867-20.587c-3.752,0.737-8.973,1.752-9.466,1.799c-0.778,0.074-5.481-1.926-5.481-1.926l5.296,1.121
			l12.295-3.043c0.152-0.048,0.311-0.097,0.445-0.142c0.215-0.072,0.467-0.121,0.747-0.153l0.001,0v0
			c4.06-0.457,14.363,3.042,14.363,3.042s3.555,10.815,3.555,12.741s1.63,5.482-3.259,11.815c-4.889,6.333,0,15.051,0,15.051
			c0.415,0.175,0.846,0.345,1.284,0.513c1.992-4.631,5.194-5.455,7.264-5.27c2.058,0.184,4.24,1.313,5.502,4.338
			c1.563-1.238,3.231-1.487,4.482-1.375c2.048,0.183,4.219,1.299,5.483,4.289c1.047-1.057,2.232-1.631,3.467-1.631
			c1.276,0,2.396,0.524,3.24,1.517c0.775,0.912,1.236,2.22,1.51,3.672c2.456-4.879,6.131-5.74,8.546-5.524
			c2.707,0.242,5.591,1.79,7.081,6.056c1.934-7.072,5.783-8.386,8.367-8.386c3.155,0,6.742,1.76,8.492,8.746
			c1.901-7.384,5.833-8.746,8.46-8.746c3.075,0,6.562,1.669,8.357,8.221c1.506-4.153,4.364-5.651,7.04-5.891
			c2.415-0.216,6.089,0.645,8.545,5.521c0.274-1.451,0.737-2.757,1.512-3.668c0.844-0.993,1.964-1.517,3.24-1.517
			c1.233,0,2.416,0.572,3.462,1.625c1.266-2.988,3.44-4.101,5.488-4.284c1.25-0.112,2.915,0.137,4.476,1.371
			c1.262-3.025,3.448-4.15,5.507-4.334c1.887-0.169,4.714,0.503,6.709,4.126c1-2.109,3.786-9.104-0.318-14.421
			c-4.889-6.333-3.259-9.889-3.259-11.815s3.556-12.741,3.556-12.741s11.778-4,15.111-2.889c0.115,0.038,0.252,0.08,0.379,0.121
			l12.362,3.064l7.176-0.898C349.652,301.375,342.689,303.745,342.318,303.745z M350.164,232.209
			c0,20.233-12.584,36.635-38.255,36.635c-25.671,0-46.481-16.438-46.481-45.528c0-20.233,12.884-26.553,47.745-25.526
			C338.833,198.547,350.164,211.976,350.164,232.209z M362.985,180.708c0,0-16.593-34.37-17.185-36.833
			c-0.593-2.462-0.889-36.731-0.889-36.731l2.519,36.231l16.593,36.148l3.111,7.787L362.985,180.708z"/>
		<path style="fill:#010101;" d="M271.391,365.79c-6.717-0.74-5.783,1.502-6.187,5.169c-0.404,3.666,2.417,14.727,3.975,14.898
			c1.381,0.152,6.537-8.352,7.124-13.675C276.708,368.515,277.777,366.494,271.391,365.79z"/>
	</g>
</g>
</svg>
